<?xml version="1.0" encoding="utf-8"?>
<svg version="1.1" id="Layer_1" xmlns="http://www.w3.org/2000/svg" x="0px" y="0px" width="100%" viewBox="0 0 704 736" enable-background="new 0 0 704 736">
  <path fill="#000000" opacity="1.000000" stroke="none" d="M 353.334 552.543 C 353.328 601.858 353.346 650.673 353.265 699.487 C 353.26 702.502 354.593 706.566 351.383 708.208 C 348.44 709.714 346.048 706.246 343.558 704.8 C 297.769 678.201 252.036 651.507 206.269 624.871 C 160.794 598.405 115.321 571.936 69.756 545.625 C 66.104 543.516 65.933 540.737 65.934 537.31 C 65.96 485.665 66.218 434.019 65.813 382.377 C 65.617 357.559 65.34 332.742 65.403 307.924 C 65.479 277.956 65.711 247.988 65.886 218.02 C 65.889 217.372 66.023 216.725 66.098 216.057 C 68.461 215.002 70.044 216.634 71.635 217.548 C 120.009 245.324 168.357 273.145 216.695 300.983 C 251.903 321.259 287.104 341.548 322.28 361.879 C 331.364 367.129 340.315 372.606 349.388 377.874 C 352.457 379.656 353.607 381.994 353.597 385.607 C 353.432 441.086 353.399 496.564 353.334 552.543 M 222.313 536.142 C 226.585 546.626 230.875 557.103 235.121 567.597 C 236.927 572.061 239.668 575.498 244.034 577.912 C 253.358 583.067 262.461 588.619 271.683 593.959 C 273.189 594.831 274.607 596.272 277.806 595.001 C 266.128 565.105 252.382 536.081 241.171 506.287 C 242.797 504.623 244.352 505.118 245.803 505.128 C 260.482 505.22 269.036 498.717 273.284 484.588 C 276.242 474.752 276.091 464.58 274.637 454.841 C 269.707 421.838 253.393 395.214 225.226 377.254 C 199.124 360.611 171.957 345.638 145.22 329.998 C 140.646 327.322 138.598 328.659 138.591 334.269 C 138.512 393.757 138.489 453.245 138.387 512.733 C 138.382 515.361 139.191 517.183 141.458 518.498 C 149.953 523.428 158.358 528.514 166.913 533.336 C 172.151 536.288 173.165 535.589 173.17 529.471 C 173.183 513.474 173.112 497.477 173.139 481.481 C 173.142 479.586 172.48 477.497 174.427 475.421 C 183.223 479.554 191.561 484.634 199.971 489.591 C 202.527 491.098 204.347 493.039 205.482 495.785 C 210.951 509.019 216.487 522.225 222.313 536.142 Z"/>
  <path fill="#000000" opacity="1.000000" stroke="none" d="M 488.897 294.809 C 446.494 319.363 404.386 343.696 362.354 368.158 C 359.279 369.947 357.016 369.59 354.127 367.921 C 288.351 329.926 222.531 292.008 156.717 254.08 C 130.453 238.944 104.181 223.823 77.92 208.681 C 76.522 207.876 74.763 207.447 74.134 205.081 C 81.761 200.66 89.479 196.179 97.204 191.71 C 134.407 170.188 171.579 148.611 208.826 127.166 C 248.527 104.308 288.34 81.646 328.008 58.732 C 336.513 53.819 344.809 48.546 353.463 43.876 C 356.398 42.293 358.856 42.238 361.822 43.974 C 378.927 53.983 396.123 63.836 413.302 73.718 C 469.181 105.862 525.072 137.985 580.945 170.139 C 599.133 180.606 617.289 191.127 635.429 201.677 C 637.244 202.732 639.451 203.394 641.057 206.87 C 590.493 236.091 539.852 265.356 488.897 294.809 M 327.022 339.315 C 335.93 344.538 344.889 349.678 353.718 355.031 C 356.649 356.807 359.235 356.804 362.106 355.133 C 368.297 351.531 374.572 348.071 380.763 344.469 C 421.657 320.681 462.51 296.823 503.431 273.082 C 540.175 251.764 576.992 230.574 613.758 209.296 C 615.267 208.423 617.231 207.843 617.456 204.879 C 612.902 202.13 608.143 199.142 603.278 196.338 C 560.269 171.55 517.234 146.807 474.221 122.025 C 436.69 100.401 399.162 78.771 361.688 57.047 C 358.875 55.417 356.656 55.368 353.88 57.021 C 345.725 61.877 337.419 66.479 329.198 71.225 C 299.913 88.133 270.653 105.085 241.356 121.971 C 212.5 138.604 183.598 155.157 154.738 171.784 C 137.562 181.679 120.397 191.594 103.295 201.617 C 97.741 204.872 97.786 206.767 103.172 209.885 C 141.516 232.08 179.875 254.25 218.228 276.429 C 254.278 297.276 290.327 318.124 327.022 339.315 Z"/>
  <path fill="#000000" opacity="1.000000" stroke="none" d="M 415.345 348.995 C 493.492 304.206 570.648 258.419 648.768 214.689 C 651.3 216.895 650.57 219.197 650.564 221.259 C 650.433 262.393 650.175 303.528 650.112 344.662 C 650.029 398.313 650.094 451.964 650.092 505.615 C 650.092 515.603 649.793 525.602 650.203 535.572 C 650.39 540.107 648.723 542.596 645.02 544.697 C 630.97 552.669 617 560.78 603.039 568.906 C 574.113 585.744 545.223 602.645 516.296 619.482 C 487.659 636.151 458.999 652.78 430.341 669.413 C 409.893 681.281 389.452 693.161 368.962 704.954 C 364.008 707.806 363.461 707.149 363.1 701.329 C 361.235 671.188 363.508 641.067 363.381 610.933 C 363.063 535.472 363.205 460.008 363.02 384.546 C 363.01 380.471 364.413 378.408 367.896 376.445 C 383.708 367.535 399.329 358.289 415.345 348.995 M 374.752 589.881 C 374.806 622.166 374.861 654.45 374.918 688.024 C 382.909 683.592 389.344 680.165 395.644 676.507 C 432.073 655.352 468.457 634.12 504.883 612.959 C 547.651 588.113 590.414 563.258 633.285 538.592 C 637.068 536.415 638.752 534.214 638.746 529.716 C 638.633 433.245 638.674 336.774 638.665 240.303 C 638.665 238.541 639.185 236.602 637.532 235.182 C 635.603 234.683 634.36 236.075 632.981 236.848 C 623.828 241.976 614.698 247.144 605.611 252.387 C 561.907 277.603 518.225 302.858 474.523 328.077 C 443.078 346.222 411.646 364.391 380.114 382.383 C 375.915 384.779 374.684 387.729 374.693 392.438 C 374.828 457.919 374.765 523.4 374.752 589.881 Z"/>
  <path fill="#000000" opacity="1.000000" stroke="none" d="M 238.333 455.97 C 235.27 463.495 230.539 465.889 222.635 464.157 C 213.329 462.118 205.774 456.383 197.567 452.069 C 190.359 448.28 183.48 443.87 176.398 439.833 C 174.523 438.764 173.159 437.576 173.172 435.252 C 173.268 418.118 173.347 400.984 173.451 383.85 C 173.453 383.545 173.693 383.242 173.825 382.938 C 175.147 381.839 176.358 382.593 177.489 383.251 C 191.282 391.271 205.65 398.415 218.53 407.858 C 232.316 417.965 239.89 431.737 239.553 449.234 C 239.512 451.359 238.858 453.473 238.333 455.97 Z"/>
  <path fill="#000000" opacity="1.000000" stroke="none" d="M 529.205 494.355 C 529.204 498.631 529.204 502.413 529.204 506.21 C 532.586 506.641 533.979 504.476 535.628 503.017 C 546.492 493.409 554.449 481.506 561.904 469.244 C 565.365 463.551 565.219 463.502 570.799 466.981 C 575.743 470.063 580.705 473.118 585.713 476.093 C 588.547 477.776 588.984 479.603 587.399 482.657 C 574.276 507.938 556.169 528.937 533.317 545.839 C 530.32 548.056 528.856 550.299 529.078 554.096 C 529.399 559.575 529.015 565.094 529.262 570.581 C 529.451 574.765 528.196 577.452 523.995 578.98 C 517.791 581.236 512.84 586.063 505.348 588.694 C 505.348 581.287 505.416 574.565 505.326 567.845 C 505.259 562.789 504.306 562.202 499.244 563.623 C 489.762 566.283 480.333 568.578 470.253 566.923 C 454.59 564.35 444.619 555.076 438.351 541.135 C 432.833 528.861 431.442 515.858 432.015 502.567 C 433.416 470.085 443.927 440.607 462.149 413.921 C 473.161 397.794 485.497 382.687 501.664 371.263 C 504.509 369.253 505.903 366.961 505.739 363.392 C 505.503 358.239 505.823 353.061 505.635 347.904 C 505.526 344.905 506.355 342.888 509.171 341.479 C 514.38 338.872 519.461 336.005 524.576 333.209 C 527.698 331.501 529.26 332.265 529.241 335.936 C 529.209 341.906 529.232 347.876 529.232 353.761 C 531.924 354.522 533.479 352.961 535.216 352.141 C 545.143 347.455 555.429 344.647 566.554 345.039 C 573.129 345.27 578.84 347.726 584.502 350.605 C 587.501 352.129 587.89 354.142 586.236 357.126 C 579.862 368.63 573.631 380.214 567.421 391.808 C 565.565 395.274 563.951 396.752 559.759 394.053 C 550.884 388.339 541.397 389.474 531.976 393.175 C 528.577 394.51 529.161 397.319 529.16 399.902 C 529.155 429.889 529.185 459.876 529.205 489.863 C 529.206 491.196 529.205 492.528 529.205 494.355 M 483.66 517.318 C 487.576 519.742 491.866 521.026 496.441 521.014 C 503.843 520.995 505.683 519.192 505.694 511.914 C 505.742 480.088 505.737 448.262 505.704 416.436 C 505.702 414.733 506.322 412.704 504.205 411.51 C 503.729 411.64 503.185 411.662 502.803 411.922 C 502.122 412.385 501.493 412.947 500.923 413.545 C 481.277 434.126 470.909 458.535 471.449 487.099 C 471.659 498.236 474.161 508.935 483.66 517.318 Z"/>
  <path style="fill: none;" d="M 44.475 217.803 L 356.37 36.193 L 668.266 215.829 L 672.214 577.076 L 358.344 754.738 L 44.475 575.102 L 44.475 217.803"/>
  <path style="fill: none; stroke: rgb(0, 0, 0); stroke-width: 10px; transform-origin: 356.019px 367.543px 0px;" d="M 51.188 551.307 L 358.181 726.422 L 660.85 549.144 L 663.012 201.075 L 360.343 25.959 L 51.188 201.075 L 51.188 551.307 Z"/>
  <polygon style="stroke: rgb(0, 0, 0); stroke-linecap: round; paint-order: fill;" points="246.984 240.324 425.904 134.562 465.664 156.828 289.925 263.385"/>
</svg>